Genre:Animation | Adventure | Comedy | Family | Fantasy
Language.: English
IMDB:http://www.imdb.com/title/tt0892791/
Source:DvD9

General
Complete name :Shrek.Forever.After.R5.H264.Feel-Free
Format : MPEG-4
Format profile : Base Media
Codec ID : mp42
File size : 699 MiB
Duration : 1h 29mn
Overall bit rate : 1 093 Kbps
Video #1
Codec ID : avc1
Codec ID/Info : Advanced Video Coding
Duration : 1h 29mn
Bit rate mode : Variable
Bit rate : 880 Kbps
Width : 720 pixels
Height : 304 pixels
Display aspect ratio : 2.35:1
Frame rate mode : Constant
Frame rate : 23.976 fps
Resolution : 24 bits
Colorimetry : 4:2:0
Scan type : Progressive
Bits/(Pixel*Frame) : 0.168
Stream size : 563 MiB (81%)
Audio #2
ID : 2
Format : AAC
Format/Info : Advanced Audio Codec
Format version : Version 4
Format profile : LC
Format settings, SBR : No
Codec ID : 40
Duration : 1h 29mn
Bit rate mode : Constant
Bit rate : 208 Kbps
Nominal bit rate : 320 Kbps
Channel(s) : 2 channels
Channel positions : L R
Sampling rate : 48.0 KHz
Resolution : 16 bits
Stream size : 133 MiB (19%)

Plot:
Rumpelstiltskin tricks a mid-life crisis burdened Shrek into allowing himself to be erased from existence and cast in a dark alternate timeline where Rumpel rules supreme

screens 
http://rapidhdd.com/images/445283vlcsnap-2010-11-17-17h25m48s253.png 
http://www.rapidhdd.com/images/860705vlcsnap-2010-11-17-17h26m36s228.png 
http://www.rapidhdd.com/images/204819vlcsnap-2010-11-17-17h27m05s16.png 
http://www.rapidhdd.com/images/872821vlcsnap-2010-11-17-17h27m19s157.png 
http://www.rapidhdd.com/images/172484vlcsnap-2010-11-17-17h34m27s76.png 
http://www.rapidhdd.com/images/788715vlcsnap-2010-11-17-17h34m58s126.png 
http://www.rapidhdd.com/images/493154vlcsnap-2010-11-17-17h29m52s133.png